# xmcd
#
# Track frame offsets:
#	150
#	39055
#	81960
#	124830
#	163392
#	200362
#	242812
#
# Disc length: 3375 seconds
#
# Revision: 1
# Processed by: cddbd v1.5PL3 Copyright (c) Steve Scherf et al.
# Submitted via: CDex 1.50Beta5
#
DISCID=570d2d07
DTITLE=ファイアーウーマン纏組 - ファイアーウーマン纏組
DYEAR=1900
DGENRE=Game
TTITLE0=第一章 身体検査がしたいの巻
TTITLE1=第二章 更衣室の怪の巻
TTITLE2=第三章 さやかの探偵物語の巻
TTITLE3=第四章 令嬢が失踪の巻
TTITLE4=第五章 追跡の巻
TTITLE5=第六章 対決の巻
TTITLE6=第七章 おまけだよーんの巻
EXTD=
EXTT0=
EXTT1=
EXTT2=
EXTT3=
EXTT4=
EXTT5=
EXTT6=
PLAYORDER=
